<?xml version="1.0" encoding="utf-8" standalone="no"?>
<!DOCTYPE svg PUBLIC "-//W3C//DTD SVG 1.1//EN"
  "http://www.w3.org/Graphics/SVG/1.1/DTD/svg11.dtd">
<svg xmlns:xlink="http://www.w3.org/1999/xlink" width="432pt" height="288pt" viewBox="0 0 432 288" xmlns="http://www.w3.org/2000/svg" version="1.1">
 <metadata>
  <rdf:RDF xmlns:dc="http://purl.org/dc/elements/1.1/" xmlns:cc="http://creativecommons.org/ns#" xmlns:rdf="http://www.w3.org/1999/02/22-rdf-syntax-ns#">
   <cc:Work>
    <dc:type rdf:resource="http://purl.org/dc/dcmitype/StillImage"/>
    <dc:date>2024-07-06T21:05:42.609057</dc:date>
    <dc:format>image/svg+xml</dc:format>
    <dc:creator>
     <cc:Agent>
      <dc:title>Matplotlib v3.8.4, https://matplotlib.org/</dc:title>
     </cc:Agent>
    </dc:creator>
   </cc:Work>
  </rdf:RDF>
 </metadata>
 <defs>
  <style type="text/css">*{stroke-linejoin: round; stroke-linecap: butt}</style>
 </defs>
 <g id="figure_1">
  <g id="patch_1">
   <path d="M 0 288 
L 432 288 
L 432 0 
L 0 0 
z
" style="fill: #ffffff"/>
  </g>
  <g id="axes_1">
   <g id="patch_2">
    <path d="M 36.403365 254.64351 
L 428.99976 254.64351 
L 428.99976 3.00024 
L 36.403365 3.00024 
z
" style="fill: #ffffff"/>
   </g>
   <g id="matplotlib.axis_1">
    <g id="xtick_1">
     <g id="line2d_1">
      <defs>
       <path id="ma92060bd21" d="M 0 0 
L 0 3.5 
" style="stroke: #000000; stroke-width: 0.8"/>
      </defs>
      <g>
       <use xlink:href="#ma92060bd21" x="36.403365" y="254.64351" style="stroke: #000000; stroke-width: 0.8"/>
      </g>
     </g>
     <g id="text_1">
      <!-- 0 -->
      <g transform="translate(33.222115 269.241947) scale(0.1 -0.1)">
       <defs>
        <path id="DejaVuSans-30" d="M 2034 4250 
Q 1547 4250 1301 3770 
Q 1056 3291 1056 2328 
Q 1056 1369 1301 889 
Q 1547 409 2034 409 
Q 2525 409 2770 889 
Q 3016 1369 3016 2328 
Q 3016 3291 2770 3770 
Q 2525 4250 2034 4250 
z
M 2034 4750 
Q 2819 4750 3233 4129 
Q 3647 3509 3647 2328 
Q 3647 1150 3233 529 
Q 2819 -91 2034 -91 
Q 1250 -91 836 529 
Q 422 1150 422 2328 
Q 422 3509 836 4129 
Q 1250 4750 2034 4750 
z
" transform="scale(0.015625)"/>
       </defs>
       <use xlink:href="#DejaVuSans-30"/>
      </g>
     </g>
    </g>
    <g id="xtick_2">
     <g id="line2d_2">
      <g>
       <use xlink:href="#ma92060bd21" x="94.912515" y="254.64351" style="stroke: #000000; stroke-width: 0.8"/>
      </g>
     </g>
     <g id="text_2">
      <!-- 5 -->
      <g transform="translate(91.731265 269.241947) scale(0.1 -0.1)">
       <defs>
        <path id="DejaVuSans-35" d="M 691 4666 
L 3169 4666 
L 3169 4134 
L 1269 4134 
L 1269 2991 
Q 1406 3038 1543 3061 
Q 1681 3084 1819 3084 
Q 2600 3084 3056 2656 
Q 3513 2228 3513 1497 
Q 3513 744 3044 326 
Q 2575 -91 1722 -91 
Q 1428 -91 1123 -41 
Q 819 9 494 109 
L 494 744 
Q 775 591 1075 516 
Q 1375 441 1709 441 
Q 2250 441 2565 725 
Q 2881 1009 2881 1497 
Q 2881 1984 2565 2268 
Q 2250 2553 1709 2553 
Q 1456 2553 1204 2497 
Q 953 2441 691 2322 
L 691 4666 
z
" transform="scale(0.015625)"/>
       </defs>
       <use xlink:href="#DejaVuSans-35"/>
      </g>
     </g>
    </g>
    <g id="xtick_3">
     <g id="line2d_3">
      <g>
       <use xlink:href="#ma92060bd21" x="153.421665" y="254.64351" style="stroke: #000000; stroke-width: 0.8"/>
      </g>
     </g>
     <g id="text_3">
      <!-- 10 -->
      <g transform="translate(147.059165 269.241947) scale(0.1 -0.1)">
       <defs>
        <path id="DejaVuSans-31" d="M 794 531 
L 1825 531 
L 1825 4091 
L 703 3866 
L 703 4441 
L 1819 4666 
L 2450 4666 
L 2450 531 
L 3481 531 
L 3481 0 
L 794 0 
L 794 531 
z
" transform="scale(0.015625)"/>
       </defs>
       <use xlink:href="#DejaVuSans-31"/>
       <use xlink:href="#DejaVuSans-30" x="63.623047"/>
      </g>
     </g>
    </g>
    <g id="xtick_4">
     <g id="line2d_4">
      <g>
       <use xlink:href="#ma92060bd21" x="211.930814" y="254.64351" style="stroke: #000000; stroke-width: 0.8"/>
      </g>
     </g>
     <g id="text_4">
      <!-- 15 -->
      <g transform="translate(205.568314 269.241947) scale(0.1 -0.1)">
       <use xlink:href="#DejaVuSans-31"/>
       <use xlink:href="#DejaVuSans-35" x="63.623047"/>
      </g>
     </g>
    </g>
    <g id="xtick_5">
     <g id="line2d_5">
      <g>
       <use xlink:href="#ma92060bd21" x="270.439964" y="254.64351" style="stroke: #000000; stroke-width: 0.8"/>
      </g>
     </g>
     <g id="text_5">
      <!-- 20 -->
      <g transform="translate(264.077464 269.241947) scale(0.1 -0.1)">
       <defs>
        <path id="DejaVuSans-32" d="M 1228 531 
L 3431 531 
L 3431 0 
L 469 0 
L 469 531 
Q 828 903 1448 1529 
Q 2069 2156 2228 2338 
Q 2531 2678 2651 2914 
Q 2772 3150 2772 3378 
Q 2772 3750 2511 3984 
Q 2250 4219 1831 4219 
Q 1534 4219 1204 4116 
Q 875 4013 500 3803 
L 500 4441 
Q 881 4594 1212 4672 
Q 1544 4750 1819 4750 
Q 2544 4750 2975 4387 
Q 3406 4025 3406 3419 
Q 3406 3131 3298 2873 
Q 3191 2616 2906 2266 
Q 2828 2175 2409 1742 
Q 1991 1309 1228 531 
z
" transform="scale(0.015625)"/>
       </defs>
       <use xlink:href="#DejaVuSans-32"/>
       <use xlink:href="#DejaVuSans-30" x="63.623047"/>
      </g>
     </g>
    </g>
    <g id="xtick_6">
     <g id="line2d_6">
      <g>
       <use xlink:href="#ma92060bd21" x="328.949114" y="254.64351" style="stroke: #000000; stroke-width: 0.8"/>
      </g>
     </g>
     <g id="text_6">
      <!-- 25 -->
      <g transform="translate(322.586614 269.241947) scale(0.1 -0.1)">
       <use xlink:href="#DejaVuSans-32"/>
       <use xlink:href="#DejaVuSans-35" x="63.623047"/>
      </g>
     </g>
    </g>
    <g id="xtick_7">
     <g id="line2d_7">
      <g>
       <use xlink:href="#ma92060bd21" x="387.458264" y="254.64351" style="stroke: #000000; stroke-width: 0.8"/>
      </g>
     </g>
     <g id="text_7">
      <!-- 30 -->
      <g transform="translate(381.095764 269.241947) scale(0.1 -0.1)">
       <defs>
        <path id="DejaVuSans-33" d="M 2597 2516 
Q 3050 2419 3304 2112 
Q 3559 1806 3559 1356 
Q 3559 666 3084 287 
Q 2609 -91 1734 -91 
Q 1441 -91 1130 -33 
Q 819 25 488 141 
L 488 750 
Q 750 597 1062 519 
Q 1375 441 1716 441 
Q 2309 441 2620 675 
Q 2931 909 2931 1356 
Q 2931 1769 2642 2001 
Q 2353 2234 1838 2234 
L 1294 2234 
L 1294 2753 
L 1863 2753 
Q 2328 2753 2575 2939 
Q 2822 3125 2822 3475 
Q 2822 3834 2567 4026 
Q 2313 4219 1838 4219 
Q 1578 4219 1281 4162 
Q 984 4106 628 3988 
L 628 4550 
Q 988 4650 1302 4700 
Q 1616 4750 1894 4750 
Q 2613 4750 3031 4423 
Q 3450 4097 3450 3541 
Q 3450 3153 3228 2886 
Q 3006 2619 2597 2516 
z
" transform="scale(0.015625)"/>
       </defs>
       <use xlink:href="#DejaVuSans-33"/>
       <use xlink:href="#DejaVuSans-30" x="63.623047"/>
      </g>
     </g>
    </g>
    <g id="text_8">
     <!-- k -->
     <g transform="translate(229.80625 282.920073) scale(0.1 -0.1)">
      <defs>
       <path id="DejaVuSans-6b" d="M 581 4863 
L 1159 4863 
L 1159 1991 
L 2875 3500 
L 3609 3500 
L 1753 1863 
L 3688 0 
L 2938 0 
L 1159 1709 
L 1159 0 
L 581 0 
L 581 4863 
z
" transform="scale(0.015625)"/>
      </defs>
      <use xlink:href="#DejaVuSans-6b"/>
     </g>
    </g>
   </g>
   <g id="matplotlib.axis_2">
    <g id="ytick_1">
     <g id="line2d_8">
      <defs>
       <path id="me81ab818dc" d="M 0 0 
L -3.5 0 
" style="stroke: #000000; stroke-width: 0.8"/>
      </defs>
      <g>
       <use xlink:href="#me81ab818dc" x="36.403365" y="254.64351" style="stroke: #000000; stroke-width: 0.8"/>
      </g>
     </g>
     <g id="text_9">
      <!-- 0 -->
      <g transform="translate(23.040865 258.442729) scale(0.1 -0.1)">
       <use xlink:href="#DejaVuSans-30"/>
      </g>
     </g>
    </g>
    <g id="ytick_2">
     <g id="line2d_9">
      <g>
       <use xlink:href="#me81ab818dc" x="36.403365" y="217.578867" style="stroke: #000000; stroke-width: 0.8"/>
      </g>
     </g>
     <g id="text_10">
      <!-- 2 -->
      <g transform="translate(23.040865 221.378086) scale(0.1 -0.1)">
       <use xlink:href="#DejaVuSans-32"/>
      </g>
     </g>
    </g>
    <g id="ytick_3">
     <g id="line2d_10">
      <g>
       <use xlink:href="#me81ab818dc" x="36.403365" y="180.514224" style="stroke: #000000; stroke-width: 0.8"/>
      </g>
     </g>
     <g id="text_11">
      <!-- 4 -->
      <g transform="translate(23.040865 184.313443) scale(0.1 -0.1)">
       <defs>
        <path id="DejaVuSans-34" d="M 2419 4116 
L 825 1625 
L 2419 1625 
L 2419 4116 
z
M 2253 4666 
L 3047 4666 
L 3047 1625 
L 3713 1625 
L 3713 1100 
L 3047 1100 
L 3047 0 
L 2419 0 
L 2419 1100 
L 313 1100 
L 313 1709 
L 2253 4666 
z
" transform="scale(0.015625)"/>
       </defs>
       <use xlink:href="#DejaVuSans-34"/>
      </g>
     </g>
    </g>
    <g id="ytick_4">
     <g id="line2d_11">
      <g>
       <use xlink:href="#me81ab818dc" x="36.403365" y="143.449581" style="stroke: #000000; stroke-width: 0.8"/>
      </g>
     </g>
     <g id="text_12">
      <!-- 6 -->
      <g transform="translate(23.040865 147.2488) scale(0.1 -0.1)">
       <defs>
        <path id="DejaVuSans-36" d="M 2113 2584 
Q 1688 2584 1439 2293 
Q 1191 2003 1191 1497 
Q 1191 994 1439 701 
Q 1688 409 2113 409 
Q 2538 409 2786 701 
Q 3034 994 3034 1497 
Q 3034 2003 2786 2293 
Q 2538 2584 2113 2584 
z
M 3366 4563 
L 3366 3988 
Q 3128 4100 2886 4159 
Q 2644 4219 2406 4219 
Q 1781 4219 1451 3797 
Q 1122 3375 1075 2522 
Q 1259 2794 1537 2939 
Q 1816 3084 2150 3084 
Q 2853 3084 3261 2657 
Q 3669 2231 3669 1497 
Q 3669 778 3244 343 
Q 2819 -91 2113 -91 
Q 1303 -91 875 529 
Q 447 1150 447 2328 
Q 447 3434 972 4092 
Q 1497 4750 2381 4750 
Q 2619 4750 2861 4703 
Q 3103 4656 3366 4563 
z
" transform="scale(0.015625)"/>
       </defs>
       <use xlink:href="#DejaVuSans-36"/>
      </g>
     </g>
    </g>
    <g id="ytick_5">
     <g id="line2d_12">
      <g>
       <use xlink:href="#me81ab818dc" x="36.403365" y="106.384938" style="stroke: #000000; stroke-width: 0.8"/>
      </g>
     </g>
     <g id="text_13">
      <!-- 8 -->
      <g transform="translate(23.040865 110.184157) scale(0.1 -0.1)">
       <defs>
        <path id="DejaVuSans-38" d="M 2034 2216 
Q 1584 2216 1326 1975 
Q 1069 1734 1069 1313 
Q 1069 891 1326 650 
Q 1584 409 2034 409 
Q 2484 409 2743 651 
Q 3003 894 3003 1313 
Q 3003 1734 2745 1975 
Q 2488 2216 2034 2216 
z
M 1403 2484 
Q 997 2584 770 2862 
Q 544 3141 544 3541 
Q 544 4100 942 4425 
Q 1341 4750 2034 4750 
Q 2731 4750 3128 4425 
Q 3525 4100 3525 3541 
Q 3525 3141 3298 2862 
Q 3072 2584 2669 2484 
Q 3125 2378 3379 2068 
Q 3634 1759 3634 1313 
Q 3634 634 3220 271 
Q 2806 -91 2034 -91 
Q 1263 -91 848 271 
Q 434 634 434 1313 
Q 434 1759 690 2068 
Q 947 2378 1403 2484 
z
M 1172 3481 
Q 1172 3119 1398 2916 
Q 1625 2713 2034 2713 
Q 2441 2713 2670 2916 
Q 2900 3119 2900 3481 
Q 2900 3844 2670 4047 
Q 2441 4250 2034 4250 
Q 1625 4250 1398 4047 
Q 1172 3844 1172 3481 
z
" transform="scale(0.015625)"/>
       </defs>
       <use xlink:href="#DejaVuSans-38"/>
      </g>
     </g>
    </g>
    <g id="ytick_6">
     <g id="line2d_13">
      <g>
       <use xlink:href="#me81ab818dc" x="36.403365" y="69.320295" style="stroke: #000000; stroke-width: 0.8"/>
      </g>
     </g>
     <g id="text_14">
      <!-- 10 -->
      <g transform="translate(16.678365 73.119514) scale(0.1 -0.1)">
       <use xlink:href="#DejaVuSans-31"/>
       <use xlink:href="#DejaVuSans-30" x="63.623047"/>
      </g>
     </g>
    </g>
    <g id="ytick_7">
     <g id="line2d_14">
      <g>
       <use xlink:href="#me81ab818dc" x="36.403365" y="32.255652" style="stroke: #000000; stroke-width: 0.8"/>
      </g>
     </g>
     <g id="text_15">
      <!-- 12 -->
      <g transform="translate(16.678365 36.054871) scale(0.1 -0.1)">
       <use xlink:href="#DejaVuSans-31"/>
       <use xlink:href="#DejaVuSans-32" x="63.623047"/>
      </g>
     </g>
    </g>
    <g id="text_16">
     <!-- runtime (µs) -->
     <g transform="translate(10.598677 159.7875) rotate(-90) scale(0.1 -0.1)">
      <defs>
       <path id="DejaVuSans-72" d="M 2631 2963 
Q 2534 3019 2420 3045 
Q 2306 3072 2169 3072 
Q 1681 3072 1420 2755 
Q 1159 2438 1159 1844 
L 1159 0 
L 581 0 
L 581 3500 
L 1159 3500 
L 1159 2956 
Q 1341 3275 1631 3429 
Q 1922 3584 2338 3584 
Q 2397 3584 2469 3576 
Q 2541 3569 2628 3553 
L 2631 2963 
z
" transform="scale(0.015625)"/>
       <path id="DejaVuSans-75" d="M 544 1381 
L 544 3500 
L 1119 3500 
L 1119 1403 
Q 1119 906 1312 657 
Q 1506 409 1894 409 
Q 2359 409 2629 706 
Q 2900 1003 2900 1516 
L 2900 3500 
L 3475 3500 
L 3475 0 
L 2900 0 
L 2900 538 
Q 2691 219 2414 64 
Q 2138 -91 1772 -91 
Q 1169 -91 856 284 
Q 544 659 544 1381 
z
M 1991 3584 
L 1991 3584 
z
" transform="scale(0.015625)"/>
       <path id="DejaVuSans-6e" d="M 3513 2113 
L 3513 0 
L 2938 0 
L 2938 2094 
Q 2938 2591 2744 2837 
Q 2550 3084 2163 3084 
Q 1697 3084 1428 2787 
Q 1159 2491 1159 1978 
L 1159 0 
L 581 0 
L 581 3500 
L 1159 3500 
L 1159 2956 
Q 1366 3272 1645 3428 
Q 1925 3584 2291 3584 
Q 2894 3584 3203 3211 
Q 3513 2838 3513 2113 
z
" transform="scale(0.015625)"/>
       <path id="DejaVuSans-74" d="M 1172 4494 
L 1172 3500 
L 2356 3500 
L 2356 3053 
L 1172 3053 
L 1172 1153 
Q 1172 725 1289 603 
Q 1406 481 1766 481 
L 2356 481 
L 2356 0 
L 1766 0 
Q 1100 0 847 248 
Q 594 497 594 1153 
L 594 3053 
L 172 3053 
L 172 3500 
L 594 3500 
L 594 4494 
L 1172 4494 
z
" transform="scale(0.015625)"/>
       <path id="DejaVuSans-69" d="M 603 3500 
L 1178 3500 
L 1178 0 
L 603 0 
L 603 3500 
z
M 603 4863 
L 1178 4863 
L 1178 4134 
L 603 4134 
L 603 4863 
z
" transform="scale(0.015625)"/>
       <path id="DejaVuSans-6d" d="M 3328 2828 
Q 3544 3216 3844 3400 
Q 4144 3584 4550 3584 
Q 5097 3584 5394 3201 
Q 5691 2819 5691 2113 
L 5691 0 
L 5113 0 
L 5113 2094 
Q 5113 2597 4934 2840 
Q 4756 3084 4391 3084 
Q 3944 3084 3684 2787 
Q 3425 2491 3425 1978 
L 3425 0 
L 2847 0 
L 2847 2094 
Q 2847 2600 2669 2842 
Q 2491 3084 2119 3084 
Q 1678 3084 1418 2786 
Q 1159 2488 1159 1978 
L 1159 0 
L 581 0 
L 581 3500 
L 1159 3500 
L 1159 2956 
Q 1356 3278 1631 3431 
Q 1906 3584 2284 3584 
Q 2666 3584 2933 3390 
Q 3200 3197 3328 2828 
z
" transform="scale(0.015625)"/>
       <path id="DejaVuSans-65" d="M 3597 1894 
L 3597 1613 
L 953 1613 
Q 991 1019 1311 708 
Q 1631 397 2203 397 
Q 2534 397 2845 478 
Q 3156 559 3463 722 
L 3463 178 
Q 3153 47 2828 -22 
Q 2503 -91 2169 -91 
Q 1331 -91 842 396 
Q 353 884 353 1716 
Q 353 2575 817 3079 
Q 1281 3584 2069 3584 
Q 2775 3584 3186 3129 
Q 3597 2675 3597 1894 
z
M 3022 2063 
Q 3016 2534 2758 2815 
Q 2500 3097 2075 3097 
Q 1594 3097 1305 2825 
Q 1016 2553 972 2059 
L 3022 2063 
z
" transform="scale(0.015625)"/>
       <path id="DejaVuSans-20" transform="scale(0.015625)"/>
       <path id="DejaVuSans-28" d="M 1984 4856 
Q 1566 4138 1362 3434 
Q 1159 2731 1159 2009 
Q 1159 1288 1364 580 
Q 1569 -128 1984 -844 
L 1484 -844 
Q 1016 -109 783 600 
Q 550 1309 550 2009 
Q 550 2706 781 3412 
Q 1013 4119 1484 4856 
L 1984 4856 
z
" transform="scale(0.015625)"/>
       <path id="DejaVuSans-b5" d="M 544 -1331 
L 544 3500 
L 1119 3500 
L 1119 1325 
Q 1119 872 1334 640 
Q 1550 409 1972 409 
Q 2434 409 2667 671 
Q 2900 934 2900 1459 
L 2900 3500 
L 3475 3500 
L 3475 806 
Q 3475 619 3529 530 
Q 3584 441 3700 441 
Q 3728 441 3778 458 
Q 3828 475 3916 513 
L 3916 50 
Q 3788 -22 3673 -56 
Q 3559 -91 3450 -91 
Q 3234 -91 3106 31 
Q 2978 153 2931 403 
Q 2775 156 2548 32 
Q 2322 -91 2016 -91 
Q 1697 -91 1473 31 
Q 1250 153 1119 397 
L 1119 -1331 
L 544 -1331 
z
" transform="scale(0.015625)"/>
       <path id="DejaVuSans-73" d="M 2834 3397 
L 2834 2853 
Q 2591 2978 2328 3040 
Q 2066 3103 1784 3103 
Q 1356 3103 1142 2972 
Q 928 2841 928 2578 
Q 928 2378 1081 2264 
Q 1234 2150 1697 2047 
L 1894 2003 
Q 2506 1872 2764 1633 
Q 3022 1394 3022 966 
Q 3022 478 2636 193 
Q 2250 -91 1575 -91 
Q 1294 -91 989 -36 
Q 684 19 347 128 
L 347 722 
Q 666 556 975 473 
Q 1284 391 1588 391 
Q 1994 391 2212 530 
Q 2431 669 2431 922 
Q 2431 1156 2273 1281 
Q 2116 1406 1581 1522 
L 1381 1569 
Q 847 1681 609 1914 
Q 372 2147 372 2553 
Q 372 3047 722 3315 
Q 1072 3584 1716 3584 
Q 2034 3584 2315 3537 
Q 2597 3491 2834 3397 
z
" transform="scale(0.015625)"/>
       <path id="DejaVuSans-29" d="M 513 4856 
L 1013 4856 
Q 1481 4119 1714 3412 
Q 1947 2706 1947 2009 
Q 1947 1309 1714 600 
Q 1481 -109 1013 -844 
L 513 -844 
Q 928 -128 1133 580 
Q 1338 1288 1338 2009 
Q 1338 2731 1133 3434 
Q 928 4138 513 4856 
z
" transform="scale(0.015625)"/>
      </defs>
      <use xlink:href="#DejaVuSans-72"/>
      <use xlink:href="#DejaVuSans-75" x="41.113281"/>
      <use xlink:href="#DejaVuSans-6e" x="104.492188"/>
      <use xlink:href="#DejaVuSans-74" x="167.871094"/>
      <use xlink:href="#DejaVuSans-69" x="207.080078"/>
      <use xlink:href="#DejaVuSans-6d" x="234.863281"/>
      <use xlink:href="#DejaVuSans-65" x="332.275391"/>
      <use xlink:href="#DejaVuSans-20" x="393.798828"/>
      <use xlink:href="#DejaVuSans-28" x="425.585938"/>
      <use xlink:href="#DejaVuSans-b5" x="464.599609"/>
      <use xlink:href="#DejaVuSans-73" x="528.222656"/>
      <use xlink:href="#DejaVuSans-29" x="580.322266"/>
     </g>
    </g>
   </g>
   <g id="line2d_15">
    <defs>
     <path id="md937273507" d="M 0 3 
C 0.795609 3 1.55874 2.683901 2.12132 2.12132 
C 2.683901 1.55874 3 0.795609 3 0 
C 3 -0.795609 2.683901 -1.55874 2.12132 -2.12132 
C 1.55874 -2.683901 0.795609 -3 0 -3 
C -0.795609 -3 -1.55874 -2.683901 -2.12132 -2.12132 
C -2.683901 -1.55874 -3 -0.795609 -3 0 
C -3 0.795609 -2.683901 1.55874 -2.12132 2.12132 
C -1.55874 2.683901 -0.795609 3 0 3 
z
" style="stroke: #767676"/>
    </defs>
    <g clip-path="url(#p5fdeb1b463)">
     <use xlink:href="#md937273507" x="48.105195" y="226.993286" style="fill: #767676; stroke: #767676"/>
     <use xlink:href="#md937273507" x="59.807025" y="222.23048" style="fill: #767676; stroke: #767676"/>
     <use xlink:href="#md937273507" x="71.508855" y="214.928745" style="fill: #767676; stroke: #767676"/>
     <use xlink:href="#md937273507" x="83.210685" y="209.294919" style="fill: #767676; stroke: #767676"/>
     <use xlink:href="#md937273507" x="94.912515" y="202.048782" style="fill: #767676; stroke: #767676"/>
     <use xlink:href="#md937273507" x="106.614345" y="194.635853" style="fill: #767676; stroke: #767676"/>
     <use xlink:href="#md937273507" x="118.316175" y="185.962727" style="fill: #767676; stroke: #767676"/>
     <use xlink:href="#md937273507" x="130.018005" y="179.532011" style="fill: #767676; stroke: #767676"/>
     <use xlink:href="#md937273507" x="141.719835" y="172.65652" style="fill: #767676; stroke: #767676"/>
     <use xlink:href="#md937273507" x="153.421665" y="164.872945" style="fill: #767676; stroke: #767676"/>
     <use xlink:href="#md937273507" x="165.123495" y="158.386632" style="fill: #767676; stroke: #767676"/>
     <use xlink:href="#md937273507" x="176.825324" y="151.418479" style="fill: #767676; stroke: #767676"/>
     <use xlink:href="#md937273507" x="188.527154" y="144.413262" style="fill: #767676; stroke: #767676"/>
     <use xlink:href="#md937273507" x="200.228984" y="136.944736" style="fill: #767676; stroke: #767676"/>
     <use xlink:href="#md937273507" x="211.930814" y="132.571108" style="fill: #767676; stroke: #767676"/>
     <use xlink:href="#md937273507" x="223.632644" y="126.047731" style="fill: #767676; stroke: #767676"/>
     <use xlink:href="#md937273507" x="235.334474" y="119.542886" style="fill: #767676; stroke: #767676"/>
     <use xlink:href="#md937273507" x="247.036304" y="109.313045" style="fill: #767676; stroke: #767676"/>
     <use xlink:href="#md937273507" x="258.738134" y="103.419767" style="fill: #767676; stroke: #767676"/>
     <use xlink:href="#md937273507" x="270.439964" y="93.430845" style="fill: #767676; stroke: #767676"/>
     <use xlink:href="#md937273507" x="282.141794" y="86.75921" style="fill: #767676; stroke: #767676"/>
     <use xlink:href="#md937273507" x="293.843624" y="80.643544" style="fill: #767676; stroke: #767676"/>
     <use xlink:href="#md937273507" x="305.545454" y="77.326258" style="fill: #767676; stroke: #767676"/>
     <use xlink:href="#md937273507" x="317.247284" y="70.358105" style="fill: #767676; stroke: #767676"/>
     <use xlink:href="#md937273507" x="328.949114" y="62.352142" style="fill: #767676; stroke: #767676"/>
     <use xlink:href="#md937273507" x="340.650944" y="57.663465" style="fill: #767676; stroke: #767676"/>
     <use xlink:href="#md937273507" x="352.352774" y="49.490711" style="fill: #767676; stroke: #767676"/>
     <use xlink:href="#md937273507" x="364.054604" y="40.409874" style="fill: #767676; stroke: #767676"/>
     <use xlink:href="#md937273507" x="375.756434" y="33.664109" style="fill: #767676; stroke: #767676"/>
     <use xlink:href="#md937273507" x="387.458264" y="26.770085" style="fill: #767676; stroke: #767676"/>
     <use xlink:href="#md937273507" x="399.160094" y="20.58029" style="fill: #767676; stroke: #767676"/>
     <use xlink:href="#md937273507" x="410.861924" y="16.466114" style="fill: #767676; stroke: #767676"/>
    </g>
   </g>
   <g id="line2d_16">
    <path d="M 48.105195 228.220526 
L 59.807025 221.301316 
L 71.508855 214.382106 
L 83.210685 207.462896 
L 94.912515 200.543686 
L 106.614345 193.624476 
L 118.316175 186.705266 
L 130.018005 179.786056 
L 141.719835 172.866846 
L 153.421665 165.947636 
L 165.123495 159.028426 
L 176.825324 152.109216 
L 188.527154 145.190006 
L 200.228984 138.270796 
L 211.930814 131.351586 
L 223.632644 124.432376 
L 235.334474 117.513166 
L 247.036304 110.593956 
L 258.738134 103.674746 
L 270.439964 96.755536 
L 282.141794 89.836326 
L 293.843624 82.917116 
L 305.545454 75.997906 
L 317.247284 69.078696 
L 328.949114 62.159486 
L 340.650944 55.240276 
L 352.352774 48.321066 
L 364.054604 41.401856 
L 375.756434 34.482646 
L 387.458264 27.563436 
L 399.160094 20.644226 
L 410.861924 13.725016 
" clip-path="url(#p5fdeb1b463)" style="fill: none; stroke-dasharray: 5.55,2.4; stroke-dashoffset: 0; stroke: #ababab; stroke-width: 1.5"/>
   </g>
   <g id="line2d_17">
    <defs>
     <path id="m09900f4d61" d="M -0 3 
L 3 -3 
L -3 -3 
z
" style="stroke: #1772f0; stroke-linejoin: miter"/>
    </defs>
    <g clip-path="url(#p5fdeb1b463)">
     <use xlink:href="#m09900f4d61" x="48.105195" y="224.843537" style="fill: #1772f0; stroke: #1772f0; stroke-linejoin: miter"/>
     <use xlink:href="#m09900f4d61" x="59.807025" y="224.398761" style="fill: #1772f0; stroke: #1772f0; stroke-linejoin: miter"/>
     <use xlink:href="#m09900f4d61" x="71.508855" y="224.621149" style="fill: #1772f0; stroke: #1772f0; stroke-linejoin: miter"/>
     <use xlink:href="#m09900f4d61" x="83.210685" y="224.398761" style="fill: #1772f0; stroke: #1772f0; stroke-linejoin: miter"/>
     <use xlink:href="#m09900f4d61" x="94.912515" y="224.417294" style="fill: #1772f0; stroke: #1772f0; stroke-linejoin: miter"/>
     <use xlink:href="#m09900f4d61" x="106.614345" y="223.842792" style="fill: #1772f0; stroke: #1772f0; stroke-linejoin: miter"/>
     <use xlink:href="#m09900f4d61" x="118.316175" y="224.361697" style="fill: #1772f0; stroke: #1772f0; stroke-linejoin: miter"/>
     <use xlink:href="#m09900f4d61" x="130.018005" y="224.3061" style="fill: #1772f0; stroke: #1772f0; stroke-linejoin: miter"/>
     <use xlink:href="#m09900f4d61" x="141.719835" y="224.23197" style="fill: #1772f0; stroke: #1772f0; stroke-linejoin: miter"/>
     <use xlink:href="#m09900f4d61" x="153.421665" y="224.54702" style="fill: #1772f0; stroke: #1772f0; stroke-linejoin: miter"/>
     <use xlink:href="#m09900f4d61" x="165.123495" y="224.417294" style="fill: #1772f0; stroke: #1772f0; stroke-linejoin: miter"/>
     <use xlink:href="#m09900f4d61" x="176.825324" y="224.676746" style="fill: #1772f0; stroke: #1772f0; stroke-linejoin: miter"/>
     <use xlink:href="#m09900f4d61" x="188.527154" y="224.713811" style="fill: #1772f0; stroke: #1772f0; stroke-linejoin: miter"/>
     <use xlink:href="#m09900f4d61" x="200.228984" y="224.639682" style="fill: #1772f0; stroke: #1772f0; stroke-linejoin: miter"/>
     <use xlink:href="#m09900f4d61" x="211.930814" y="224.713811" style="fill: #1772f0; stroke: #1772f0; stroke-linejoin: miter"/>
     <use xlink:href="#m09900f4d61" x="223.632644" y="224.713811" style="fill: #1772f0; stroke: #1772f0; stroke-linejoin: miter"/>
     <use xlink:href="#m09900f4d61" x="235.334474" y="224.658214" style="fill: #1772f0; stroke: #1772f0; stroke-linejoin: miter"/>
     <use xlink:href="#m09900f4d61" x="247.036304" y="224.713811" style="fill: #1772f0; stroke: #1772f0; stroke-linejoin: miter"/>
     <use xlink:href="#m09900f4d61" x="258.738134" y="224.750875" style="fill: #1772f0; stroke: #1772f0; stroke-linejoin: miter"/>
     <use xlink:href="#m09900f4d61" x="270.439964" y="223.99105" style="fill: #1772f0; stroke: #1772f0; stroke-linejoin: miter"/>
     <use xlink:href="#m09900f4d61" x="282.141794" y="224.584085" style="fill: #1772f0; stroke: #1772f0; stroke-linejoin: miter"/>
     <use xlink:href="#m09900f4d61" x="293.843624" y="223.953986" style="fill: #1772f0; stroke: #1772f0; stroke-linejoin: miter"/>
     <use xlink:href="#m09900f4d61" x="305.545454" y="224.732343" style="fill: #1772f0; stroke: #1772f0; stroke-linejoin: miter"/>
     <use xlink:href="#m09900f4d61" x="317.247284" y="224.880602" style="fill: #1772f0; stroke: #1772f0; stroke-linejoin: miter"/>
     <use xlink:href="#m09900f4d61" x="328.949114" y="224.806472" style="fill: #1772f0; stroke: #1772f0; stroke-linejoin: miter"/>
     <use xlink:href="#m09900f4d61" x="340.650944" y="224.658214" style="fill: #1772f0; stroke: #1772f0; stroke-linejoin: miter"/>
     <use xlink:href="#m09900f4d61" x="352.352774" y="224.862069" style="fill: #1772f0; stroke: #1772f0; stroke-linejoin: miter"/>
     <use xlink:href="#m09900f4d61" x="364.054604" y="224.862069" style="fill: #1772f0; stroke: #1772f0; stroke-linejoin: miter"/>
     <use xlink:href="#m09900f4d61" x="375.756434" y="224.862069" style="fill: #1772f0; stroke: #1772f0; stroke-linejoin: miter"/>
     <use xlink:href="#m09900f4d61" x="387.458264" y="224.917666" style="fill: #1772f0; stroke: #1772f0; stroke-linejoin: miter"/>
     <use xlink:href="#m09900f4d61" x="399.160094" y="224.954731" style="fill: #1772f0; stroke: #1772f0; stroke-linejoin: miter"/>
     <use xlink:href="#m09900f4d61" x="410.861924" y="224.973263" style="fill: #1772f0; stroke: #1772f0; stroke-linejoin: miter"/>
    </g>
   </g>
   <g id="line2d_18">
    <path d="M 48.105195 224.346323 
L 59.807025 224.362298 
L 71.508855 224.378273 
L 83.210685 224.394247 
L 94.912515 224.410222 
L 106.614345 224.426196 
L 118.316175 224.442171 
L 130.018005 224.458146 
L 141.719835 224.47412 
L 153.421665 224.490095 
L 165.123495 224.506069 
L 176.825324 224.522044 
L 188.527154 224.538019 
L 200.228984 224.553993 
L 211.930814 224.569968 
L 223.632644 224.585943 
L 235.334474 224.601917 
L 247.036304 224.617892 
L 258.738134 224.633866 
L 270.439964 224.649841 
L 282.141794 224.665816 
L 293.843624 224.68179 
L 305.545454 224.697765 
L 317.247284 224.713739 
L 328.949114 224.729714 
L 340.650944 224.745689 
L 352.352774 224.761663 
L 364.054604 224.777638 
L 375.756434 224.793613 
L 387.458264 224.809587 
L 399.160094 224.825562 
L 410.861924 224.841536 
" clip-path="url(#p5fdeb1b463)" style="fill: none; stroke-dasharray: 5.55,2.4; stroke-dashoffset: 0; stroke: #91a7ff; stroke-width: 1.5"/>
   </g>
   <g id="line2d_19">
    <defs>
     <path id="m63b76141c0" d="M 0 -3 
L -3 3 
L 3 3 
z
" style="stroke: #db3a35; stroke-linejoin: miter"/>
    </defs>
    <g clip-path="url(#p5fdeb1b463)">
     <use xlink:href="#m63b76141c0" x="48.105195" y="221.933963" style="fill: #db3a35; stroke: #db3a35; stroke-linejoin: miter"/>
     <use xlink:href="#m63b76141c0" x="59.807025" y="221.563316" style="fill: #db3a35; stroke: #db3a35; stroke-linejoin: miter"/>
     <use xlink:href="#m63b76141c0" x="71.508855" y="221.489187" style="fill: #db3a35; stroke: #db3a35; stroke-linejoin: miter"/>
     <use xlink:href="#m63b76141c0" x="83.210685" y="221.025879" style="fill: #db3a35; stroke: #db3a35; stroke-linejoin: miter"/>
     <use xlink:href="#m63b76141c0" x="94.912515" y="220.95175" style="fill: #db3a35; stroke: #db3a35; stroke-linejoin: miter"/>
     <use xlink:href="#m63b76141c0" x="106.614345" y="221.285331" style="fill: #db3a35; stroke: #db3a35; stroke-linejoin: miter"/>
     <use xlink:href="#m63b76141c0" x="118.316175" y="221.174137" style="fill: #db3a35; stroke: #db3a35; stroke-linejoin: miter"/>
     <use xlink:href="#m63b76141c0" x="130.018005" y="221.062943" style="fill: #db3a35; stroke: #db3a35; stroke-linejoin: miter"/>
     <use xlink:href="#m63b76141c0" x="141.719835" y="221.025879" style="fill: #db3a35; stroke: #db3a35; stroke-linejoin: miter"/>
     <use xlink:href="#m63b76141c0" x="153.421665" y="221.007347" style="fill: #db3a35; stroke: #db3a35; stroke-linejoin: miter"/>
     <use xlink:href="#m63b76141c0" x="165.123495" y="221.248267" style="fill: #db3a35; stroke: #db3a35; stroke-linejoin: miter"/>
     <use xlink:href="#m63b76141c0" x="176.825324" y="221.730107" style="fill: #db3a35; stroke: #db3a35; stroke-linejoin: miter"/>
     <use xlink:href="#m63b76141c0" x="188.527154" y="221.767172" style="fill: #db3a35; stroke: #db3a35; stroke-linejoin: miter"/>
     <use xlink:href="#m63b76141c0" x="200.228984" y="221.859833" style="fill: #db3a35; stroke: #db3a35; stroke-linejoin: miter"/>
     <use xlink:href="#m63b76141c0" x="211.930814" y="221.804236" style="fill: #db3a35; stroke: #db3a35; stroke-linejoin: miter"/>
     <use xlink:href="#m63b76141c0" x="223.632644" y="221.730107" style="fill: #db3a35; stroke: #db3a35; stroke-linejoin: miter"/>
     <use xlink:href="#m63b76141c0" x="235.334474" y="221.822769" style="fill: #db3a35; stroke: #db3a35; stroke-linejoin: miter"/>
     <use xlink:href="#m63b76141c0" x="247.036304" y="221.229734" style="fill: #db3a35; stroke: #db3a35; stroke-linejoin: miter"/>
     <use xlink:href="#m63b76141c0" x="258.738134" y="220.136327" style="fill: #db3a35; stroke: #db3a35; stroke-linejoin: miter"/>
     <use xlink:href="#m63b76141c0" x="270.439964" y="220.95175" style="fill: #db3a35; stroke: #db3a35; stroke-linejoin: miter"/>
     <use xlink:href="#m63b76141c0" x="282.141794" y="221.266799" style="fill: #db3a35; stroke: #db3a35; stroke-linejoin: miter"/>
     <use xlink:href="#m63b76141c0" x="293.843624" y="220.988814" style="fill: #db3a35; stroke: #db3a35; stroke-linejoin: miter"/>
     <use xlink:href="#m63b76141c0" x="305.545454" y="221.415058" style="fill: #db3a35; stroke: #db3a35; stroke-linejoin: miter"/>
     <use xlink:href="#m63b76141c0" x="317.247284" y="221.526252" style="fill: #db3a35; stroke: #db3a35; stroke-linejoin: miter"/>
     <use xlink:href="#m63b76141c0" x="328.949114" y="221.452122" style="fill: #db3a35; stroke: #db3a35; stroke-linejoin: miter"/>
     <use xlink:href="#m63b76141c0" x="340.650944" y="221.43359" style="fill: #db3a35; stroke: #db3a35; stroke-linejoin: miter"/>
     <use xlink:href="#m63b76141c0" x="352.352774" y="220.970282" style="fill: #db3a35; stroke: #db3a35; stroke-linejoin: miter"/>
     <use xlink:href="#m63b76141c0" x="364.054604" y="220.988814" style="fill: #db3a35; stroke: #db3a35; stroke-linejoin: miter"/>
     <use xlink:href="#m63b76141c0" x="375.756434" y="221.044411" style="fill: #db3a35; stroke: #db3a35; stroke-linejoin: miter"/>
     <use xlink:href="#m63b76141c0" x="387.458264" y="221.025879" style="fill: #db3a35; stroke: #db3a35; stroke-linejoin: miter"/>
     <use xlink:href="#m63b76141c0" x="399.160094" y="221.359461" style="fill: #db3a35; stroke: #db3a35; stroke-linejoin: miter"/>
     <use xlink:href="#m63b76141c0" x="410.861924" y="221.211202" style="fill: #db3a35; stroke: #db3a35; stroke-linejoin: miter"/>
    </g>
   </g>
   <g id="line2d_20">
    <path d="M 48.105195 221.423481 
L 59.807025 221.415278 
L 71.508855 221.407075 
L 83.210685 221.398872 
L 94.912515 221.390669 
L 106.614345 221.382466 
L 118.316175 221.374263 
L 130.018005 221.36606 
L 141.719835 221.357857 
L 153.421665 221.349654 
L 165.123495 221.341451 
L 176.825324 221.333248 
L 188.527154 221.325045 
L 200.228984 221.316842 
L 211.930814 221.308639 
L 223.632644 221.300436 
L 235.334474 221.292233 
L 247.036304 221.28403 
L 258.738134 221.275827 
L 270.439964 221.267624 
L 282.141794 221.259421 
L 293.843624 221.251218 
L 305.545454 221.243015 
L 317.247284 221.234812 
L 328.949114 221.226609 
L 340.650944 221.218406 
L 352.352774 221.210203 
L 364.054604 221.202 
L 375.756434 221.193797 
L 387.458264 221.185594 
L 399.160094 221.177391 
L 410.861924 221.169188 
" clip-path="url(#p5fdeb1b463)" style="fill: none; stroke-dasharray: 5.55,2.4; stroke-dashoffset: 0; stroke: #ff8a76; stroke-width: 1.5"/>
   </g>
   <g id="patch_3">
    <path d="M 36.403365 254.64351 
L 36.403365 3.00024 
" style="fill: none; stroke: #000000; stroke-width: 0.8; stroke-linejoin: miter; stroke-linecap: square"/>
   </g>
   <g id="patch_4">
    <path d="M 428.99976 254.64351 
L 428.99976 3.00024 
" style="fill: none; stroke: #000000; stroke-width: 0.8; stroke-linejoin: miter; stroke-linecap: square"/>
   </g>
   <g id="patch_5">
    <path d="M 36.403365 254.64351 
L 428.99976 254.64351 
" style="fill: none; stroke: #000000; stroke-width: 0.8; stroke-linejoin: miter; stroke-linecap: square"/>
   </g>
   <g id="patch_6">
    <path d="M 36.403365 3.00024 
L 428.99976 3.00024 
" style="fill: none; stroke: #000000; stroke-width: 0.8; stroke-linejoin: miter; stroke-linecap: square"/>
   </g>
   <g id="legend_1">
    <g id="patch_7">
     <path d="M 43.403365 55.034615 
L 110.040865 55.034615 
Q 112.040865 55.034615 112.040865 53.034615 
L 112.040865 10.00024 
Q 112.040865 8.00024 110.040865 8.00024 
L 43.403365 8.00024 
Q 41.403365 8.00024 41.403365 10.00024 
L 41.403365 53.034615 
Q 41.403365 55.034615 43.403365 55.034615 
z
" style="fill: #ffffff; opacity: 0.8; stroke: #cccccc; stroke-linejoin: miter"/>
    </g>
    <g id="line2d_21">
     <g>
      <use xlink:href="#md937273507" x="55.403365" y="16.098677" style="fill: #767676; stroke: #767676"/>
     </g>
    </g>
    <g id="text_17">
     <!-- naive -->
     <g transform="translate(73.403365 19.598677) scale(0.1 -0.1)">
      <defs>
       <path id="DejaVuSans-61" d="M 2194 1759 
Q 1497 1759 1228 1600 
Q 959 1441 959 1056 
Q 959 750 1161 570 
Q 1363 391 1709 391 
Q 2188 391 2477 730 
Q 2766 1069 2766 1631 
L 2766 1759 
L 2194 1759 
z
M 3341 1997 
L 3341 0 
L 2766 0 
L 2766 531 
Q 2569 213 2275 61 
Q 1981 -91 1556 -91 
Q 1019 -91 701 211 
Q 384 513 384 1019 
Q 384 1609 779 1909 
Q 1175 2209 1959 2209 
L 2766 2209 
L 2766 2266 
Q 2766 2663 2505 2880 
Q 2244 3097 1772 3097 
Q 1472 3097 1187 3025 
Q 903 2953 641 2809 
L 641 3341 
Q 956 3463 1253 3523 
Q 1550 3584 1831 3584 
Q 2591 3584 2966 3190 
Q 3341 2797 3341 1997 
z
" transform="scale(0.015625)"/>
       <path id="DejaVuSans-76" d="M 191 3500 
L 800 3500 
L 1894 563 
L 2988 3500 
L 3597 3500 
L 2284 0 
L 1503 0 
L 191 3500 
z
" transform="scale(0.015625)"/>
      </defs>
      <use xlink:href="#DejaVuSans-6e"/>
      <use xlink:href="#DejaVuSans-61" x="63.378906"/>
      <use xlink:href="#DejaVuSans-69" x="124.658203"/>
      <use xlink:href="#DejaVuSans-76" x="152.441406"/>
      <use xlink:href="#DejaVuSans-65" x="211.621094"/>
     </g>
    </g>
    <g id="line2d_22">
     <g>
      <use xlink:href="#m09900f4d61" x="55.403365" y="30.776802" style="fill: #1772f0; stroke: #1772f0; stroke-linejoin: miter"/>
     </g>
    </g>
    <g id="text_18">
     <!-- fast -->
     <g transform="translate(73.403365 34.276802) scale(0.1 -0.1)">
      <defs>
       <path id="DejaVuSans-66" d="M 2375 4863 
L 2375 4384 
L 1825 4384 
Q 1516 4384 1395 4259 
Q 1275 4134 1275 3809 
L 1275 3500 
L 2222 3500 
L 2222 3053 
L 1275 3053 
L 1275 0 
L 697 0 
L 697 3053 
L 147 3053 
L 147 3500 
L 697 3500 
L 697 3744 
Q 697 4328 969 4595 
Q 1241 4863 1831 4863 
L 2375 4863 
z
" transform="scale(0.015625)"/>
      </defs>
      <use xlink:href="#DejaVuSans-66"/>
      <use xlink:href="#DejaVuSans-61" x="35.205078"/>
      <use xlink:href="#DejaVuSans-73" x="96.484375"/>
      <use xlink:href="#DejaVuSans-74" x="148.583984"/>
     </g>
    </g>
    <g id="line2d_23">
     <g>
      <use xlink:href="#m63b76141c0" x="55.403365" y="45.454927" style="fill: #db3a35; stroke: #db3a35; stroke-linejoin: miter"/>
     </g>
    </g>
    <g id="text_19">
     <!-- bitshift -->
     <g transform="translate(73.403365 48.954927) scale(0.1 -0.1)">
      <defs>
       <path id="DejaVuSans-62" d="M 3116 1747 
Q 3116 2381 2855 2742 
Q 2594 3103 2138 3103 
Q 1681 3103 1420 2742 
Q 1159 2381 1159 1747 
Q 1159 1113 1420 752 
Q 1681 391 2138 391 
Q 2594 391 2855 752 
Q 3116 1113 3116 1747 
z
M 1159 2969 
Q 1341 3281 1617 3432 
Q 1894 3584 2278 3584 
Q 2916 3584 3314 3078 
Q 3713 2572 3713 1747 
Q 3713 922 3314 415 
Q 2916 -91 2278 -91 
Q 1894 -91 1617 61 
Q 1341 213 1159 525 
L 1159 0 
L 581 0 
L 581 4863 
L 1159 4863 
L 1159 2969 
z
" transform="scale(0.015625)"/>
       <path id="DejaVuSans-68" d="M 3513 2113 
L 3513 0 
L 2938 0 
L 2938 2094 
Q 2938 2591 2744 2837 
Q 2550 3084 2163 3084 
Q 1697 3084 1428 2787 
Q 1159 2491 1159 1978 
L 1159 0 
L 581 0 
L 581 4863 
L 1159 4863 
L 1159 2956 
Q 1366 3272 1645 3428 
Q 1925 3584 2291 3584 
Q 2894 3584 3203 3211 
Q 3513 2838 3513 2113 
z
" transform="scale(0.015625)"/>
      </defs>
      <use xlink:href="#DejaVuSans-62"/>
      <use xlink:href="#DejaVuSans-69" x="63.476562"/>
      <use xlink:href="#DejaVuSans-74" x="91.259766"/>
      <use xlink:href="#DejaVuSans-73" x="130.46875"/>
      <use xlink:href="#DejaVuSans-68" x="182.568359"/>
      <use xlink:href="#DejaVuSans-69" x="245.947266"/>
      <use xlink:href="#DejaVuSans-66" x="273.730469"/>
      <use xlink:href="#DejaVuSans-74" x="307.185547"/>
     </g>
    </g>
   </g>
  </g>
 </g>
 <defs>
  <clipPath id="p5fdeb1b463">
   <rect x="36.403365" y="3.00024" width="392.596395" height="251.64327"/>
  </clipPath>
 </defs>
</svg>
